<mxfile host="app.diagrams.net" agent="Mozilla/5.0 (Windows NT 10.0; Win64; x64) AppleWebKit/537.36 (KHTML, like Gecko) Chrome/135.0.0.0 Safari/537.36" version="26.2.14">
  <diagram name="Bronze Pipeline" id="0">
    <mxGraphModel dx="804" dy="701" grid="1" gridSize="10" guides="1" tooltips="1" connect="1" arrows="1" fold="1" page="1" pageScale="1" pageWidth="827" pageHeight="1169" math="0" shadow="0">
      <root>
        <mxCell id="0" />
        <mxCell id="1" parent="0" />
        <mxCell id="2" value="Triage API" style="shape=cloud;whiteSpace=wrap;html=1;fillColor=#dae8fc;strokeColor=#6c8ebf;" parent="1" vertex="1">
          <mxGeometry x="30" y="70" width="140" height="60" as="geometry" />
        </mxCell>
        <mxCell id="3" value="Malware Bazaar API" style="shape=cloud;whiteSpace=wrap;html=1;fillColor=#ffe6cc;strokeColor=#d79b00;" parent="1" vertex="1">
          <mxGeometry x="20" y="360" width="180" height="60" as="geometry" />
        </mxCell>
        <mxCell id="4" value="DAG: gen_bronze_mw_raw_index (fetch_sample_ids ➝ fetch_sample_details)" style="shape=process;whiteSpace=wrap;html=1;fillColor=#e1d5e7;strokeColor=#9673a6;verticalAlign=top;" parent="1" vertex="1">
          <mxGeometry x="220" y="60" width="290" height="80" as="geometry" />
        </mxCell>
        <mxCell id="5" value="DAG: gen_bronze_mw_raw_upd_mbaz (fetch_hashes ➝ query_mbaz ➝ update_elastic)" style="shape=process;whiteSpace=wrap;html=1;fillColor=#d5e8d4;strokeColor=#82b366;verticalAlign=top;" parent="1" vertex="1">
          <mxGeometry x="220" y="360" width="270" height="90" as="geometry" />
        </mxCell>
        <mxCell id="6" value="Elasticsearch Index: bronze_mw_raw" style="shape=database;whiteSpace=wrap;html=1;fillColor=#fff2cc;strokeColor=#d6b656;" parent="1" vertex="1">
          <mxGeometry x="314" y="210" width="200" height="80" as="geometry" />
        </mxCell>
        <mxCell id="7" value="Campos del índice:&lt;div&gt;• sha256, id, created, score&lt;/div&gt;&lt;div&gt;• family, tags, ttp&lt;/div&gt;&lt;div&gt;• domains, ips&lt;/div&gt;&lt;div&gt;• origin_country, delivery_method&lt;/div&gt;&lt;div&gt;• file_type, file_size&lt;/div&gt;" style="shape=note;whiteSpace=wrap;html=1;fillColor=#f8cecc;strokeColor=#b85450;" parent="1" vertex="1">
          <mxGeometry x="550" y="175" width="170" height="150" as="geometry" />
        </mxCell>
        <mxCell id="10" style="endArrow=block;html=1;" parent="1" source="2" target="4" edge="1">
          <mxGeometry relative="1" as="geometry" />
        </mxCell>
        <mxCell id="15" value="Extrae muestras nuevas desde Triage" style="edgeLabel;html=1;labelBackgroundColor=none;" parent="10" vertex="1">
          <mxGeometry x="0.5" y="-0.2" relative="1" as="geometry">
            <mxPoint x="62" y="10" as="offset" />
          </mxGeometry>
        </mxCell>
        <mxCell id="11" style="endArrow=block;html=1;" parent="1" source="4" target="6" edge="1">
          <mxGeometry relative="1" as="geometry" />
        </mxCell>
        <mxCell id="12" style="endArrow=block;html=1;" parent="1" source="6" target="5" edge="1">
          <mxGeometry relative="1" as="geometry" />
        </mxCell>
        <mxCell id="14" value="Espera finalización del DAG anterior" style="edgeLabel;html=1;align=center;verticalAlign=middle;" parent="12" vertex="1">
          <mxGeometry x="0.5" y="-0.2" relative="1" as="geometry">
            <mxPoint x="7" y="-20" as="offset" />
          </mxGeometry>
        </mxCell>
        <mxCell id="13" style="endArrow=block;html=1;" parent="1" source="3" target="5" edge="1">
          <mxGeometry relative="1" as="geometry" />
        </mxCell>
        <mxCell id="16" value="Actualiza campos extra con MBazaar" style="edgeLabel;html=1;labelBackgroundColor=none;" parent="13" vertex="1">
          <mxGeometry x="0.5" y="-0.2" relative="1" as="geometry">
            <mxPoint x="55" y="23" as="offset" />
          </mxGeometry>
        </mxCell>
        <mxCell id="gzMOMaQ7TNhVe_nNj5UX-16" value="" style="shape=flexArrow;endArrow=classic;html=1;rounded=0;" edge="1" parent="1">
          <mxGeometry width="50" height="50" relative="1" as="geometry">
            <mxPoint x="480" y="249.5" as="sourcePoint" />
            <mxPoint x="550" y="249.5" as="targetPoint" />
          </mxGeometry>
        </mxCell>
      </root>
    </mxGraphModel>
  </diagram>
</mxfile>
